# ProBuilder 5.1.1
# https://unity3d.com/unity/features/worldbuilding/probuilder
# 2024-02-08 오전 12:08:32

mtllib ./Arrow.mtl
o Arrow

g Arrow
v 0.6614729 0.05622864 8.378363E-05
v -1.938749 0.05622864 0.0001756463
v -1.938745 0.4594746 0.0003892694
v -3.470119 -0.4437714 0.0002978992
v -1.938745 -1.358026 0.000419787
v -1.938749 -0.9437714 0.0001756463
v 0.6614729 -0.9437714 8.378363E-05

vt -0.6614729 0.05622864
vt 1.938749 0.05622864
vt 1.938745 0.4594746
vt 3.470119 -0.4437714
vt 1.938745 -1.358026
vt 1.938749 -0.9437714
vt -0.6614729 -0.9437714

vn -3.53288E-05 0 -1
vn -0.0001226544 0.000176587 -0.9999999
vn -0.000252802 0.0005297611 -0.9999998
vn -0.0002722588 -0.0005893524 -0.9999998

usemtl Arrow
f 4/4/2 3/3/3 2/2/2
f 6/6/2 4/4/2 2/2/2
f 5/5/4 4/4/2 6/6/2
f 6/6/2 2/2/2 1/1/1
f 7/7/1 6/6/2 1/1/1

