# ProBuilder 5.1.1
# https://unity3d.com/unity/features/worldbuilding/probuilder
# 2024-01-23 오전 2:16:22

mtllib ./Crystal.mtl
o Crystal

g Model
v -2 0 -1
v -1.62349 0 -1.781832
v -1 2 -1
v -1 -2 -1
v -0.7774792 0 -1.974928
v -0.09903109 0 -1.433884
v -0.09903103 0 -0.5661165
v -0.777479 0 -0.0250721
v -1.62349 0 -0.2181687

vt 1.735535 0
vt 0 1.192093E-07
vt 0.8677675 2.692022
vt -0.03320158 0.9183233
vt -0.900969 0.9183233
vt -0.4670852 -1.275246
vt 1.186291 0.8618872
vt 0.3185234 0.8618872
vt 0.752407 -1.331682
vt 1.839205 0.4350927
vt 0.9714374 0.4350927
vt 1.405321 -1.758476
vt 1.433884 -0.04067519
vt 0.5661165 -0.04067519
vt 1 -2.234244
vt 0.2755423 -0.2071537
vt -0.5922253 -0.2071537
vt -0.1583415 -2.400723
vt -0.763565 0.06101913
vt -1.631333 0.06101913
vt -1.197449 -2.13255
vt -0.9009688 0.5619037
vt -1.768736 0.5619037
vt -1.334852 -1.631665

vn -0.8214639 0.410732 -0.3955961
vn -0.8214639 -0.410732 -0.3955961
vn -0.2028848 0.4107319 -0.8888965
vn -0.2028848 -0.4107319 -0.8888965
vn 0.5684707 0.4107319 -0.7128397
vn 0.5684707 -0.4107319 -0.7128397
vn 0.9117562 0.410732 -6.262613E-08
vn 0.9117562 -0.410732 -6.262613E-08
vn 0.5684708 0.4107319 0.7128396
vn 0.5684708 -0.4107319 0.7128396
vn -0.2028849 0.4107319 0.8888965
vn -0.2028849 -0.4107319 0.8888965
vn -0.821464 0.410732 0.395596
vn -0.821464 -0.410732 0.395596

usemtl Crystal
f 3/3/1 2/2/1 1/1/1
f 1/4/2 2/5/2 4/6/2
f 3/3/3 5/2/3 2/1/3
f 2/7/4 5/8/4 4/9/4
f 3/3/5 6/2/5 5/1/5
f 5/10/6 6/11/6 4/12/6
f 3/3/7 7/2/7 6/1/7
f 6/13/8 7/14/8 4/15/8
f 3/3/9 8/2/9 7/1/9
f 7/16/10 8/17/10 4/18/10
f 3/3/11 9/2/11 8/1/11
f 8/19/12 9/20/12 4/21/12
f 3/3/13 1/2/13 9/1/13
f 9/22/14 1/23/14 4/24/14

