# ProBuilder 5.1.1
# https://unity3d.com/unity/features/worldbuilding/probuilder
# 2024-02-03 오후 1:04:19

mtllib ./3-1.mtl
o 3-1

g 3-1
v 0.75 -2.000001 -0.25
v 0.75 0 -0.25
v 0.75 -2.000001 0
v 0.75 0 0
v 1.75 0 -0.25
v 1.75 0 0
v 1.75 -2.000001 -0.25
v 1.75 -2.000001 0
v 1.75 -3.000001 -0.25
v 0.75 -3.000001 -0.25
v 1.75 -3.000001 0
v 0.75 -3.000001 0
v 0.5 -2.000001 -0.25
v 0.5 -2.000001 0
v 0.5 -3.000001 -0.25
v 0.5 -3.000001 0
v 0.75 -3.000001 -1.5
v 0.75 -2.000001 -1.5
v 0.5 -3.000001 -1.5
v 0.5 -2.000001 -1.5
v 4.75 -16.00001 -2.25
v 2.75 -16.00001 -2.25
v 4.75 -10 -2.25
v 2.75 -10 -2.25
v 2.75 -16.00001 -4.25
v 2.75 -10 -4.25
v 4.75 -16.00001 -4.25
v 4.75 -10 -4.25
v 4.75 -16.00001 -0.2500002
v 2.75 -16.00001 -0.25
v 4.75 -4.000002 -0.2500002
v 2.75 -4.000001 -0.25
v 2.75 -4.000001 -2.25
v 4.75 -4.000002 -2.25
v 0.75 -16.00001 -2.25
v 2.75 0 -2.25
v 0.75 0 -2.25
v 0.75 -16.00001 -4.25
v 0.75 0 -4.25
v 2.75 0 -4.25
v 1.75 -12 -4.25
v 1.75 -14.00001 -4.25
v 1.75 -12 -4.75
v 1.75 -14.00001 -4.75
v 4.75 -14.00001 -4.25
v 4.75 -14.00001 -4.75
v 5 -14.00001 -4.25
v 5 -12 -4.25
v 5 -14.00001 -4.75
v 5 -12 -4.75
v 4.75 -12 -4.25
v 4.75 -12 -4.75
v 4.75 -14.00001 -2.5
v 4.75 -12.00001 -2.5
v 5 -14.00001 -2.5
v 5 -12.00001 -2.5
v 4.75 -9.000004 -4.25
v 4.75 -9.000003 -4.75
v 5 -9.000003 -4.25
v 5 -9.000002 -4.75
v 4.75 -10 -4.75
v 5 -10 -4.25
v 5 -10 -4.75
v 4.75 -7.000003 -0.2500002
v 4.75 -6.000002 -0.2500002
v 5.75 -7.000003 -0.2500002
v 5.75 -6.000003 -0.2500002
v 4.75 -6.000002 -1.25
v 5.75 -6.000002 -1.25
v 4.75 -6.000002 -2.25
v 4.75 -7.000002 -2.25
v 5.75 -6.000002 -2.25
v 5.75 -7.000002 -2.25
v 4.75 -7.000003 -1.25
v 5.75 -7.000003 -1.25
v 4.75 -9.000004 -1.25
v 5.75 -9.000003 -1.25
v 4.75 -9.000004 -2.25
v 5.75 -9.000003 -2.25
v 5.75 -16.00001 -0.2500002
v 5.75 -14.00001 -0.2500002
v 4.75 -14.00001 -0.2500002
v 4.75 -16.00001 -1.25
v 4.75 -14.00001 -1.25
v 5.75 -16.00001 -1.25
v 5.75 -14.00001 -1.25
v 0.75 -15.00001 -4.25
v 0.75 -15 -5.25
v 0.75 -16.00001 -5.25
v 1.75 -16.00001 -4.25
v 1.75 -16.00001 -5.25
v 1.75 -15.00001 -4.25
v 1.75 -15 -5.25
v 0.75 -6.000008 -1.25
v 0.75 -9.00001 -1.25
v 0.25 -6.000008 -1.25
v 0.25 -9.00001 -1.25
v 0.75 -9.00001 -3.25
v 0.25 -9.00001 -3.25
v 0.75 -6.000008 -3.25
v 0.25 -6.000008 -3.25
v 0.75 -4.000008 -3.25
v 0.75 -4.000008 -1.25
v 0.25 -4.000008 -3.25
v 0.25 -4.000008 -1.25
v 0.25 -6.000008 -4.75
v 0.75 -6.000008 -4.75
v 0.25 -4.000008 -4.75
v 0.75 -4.000008 -4.75
v 1.75 -6.000008 -3.25
v 1.75 -4.000008 -3.25
v 1.75 -6.00001 -4.75
v 1.75 -4.000008 -4.75
v 0.75 -8.000004 -4.75
v 0.75 -8.000006 -3.25
v 1.75 -8.000006 -4.75
v 1.75 -8.000006 -3.25
v 0.75 -7.000002 -4.75
v 0.75 -7.000002 -3.25
v 1.75 -7.000004 -4.75
v 1.75 -7.000004 -3.25
v 1.75 -10 -0.25
v 1.75 -5.000002 -0.25
v 1.75 -10 0
v 1.75 -5.000002 0
v 2.75 -5.000002 -0.25
v 2.75 -5.000002 0
v 2.75 -10 -0.25
v 2.75 -10 0
v 2.75 -5.000002 0.25
v 2.75 -4.000001 0.25
v 5.75 -4.000002 -0.2500002
v 5.75 -4.000002 0.25
v 5.75 -5.000002 -0.2500002
v 5.75 -5.000002 0.25
v 3.75 -4.000002 0.25
v 3.75 -3.000001 0.25
v 2.75 -3.000001 0.25
v 2.75 -4.000001 -0.75
v 2.75 -3.000001 -0.75
v 3.75 -4.000002 -0.75
v 3.75 -3.000001 -0.75
v 2.75 -5.000002 -2.25
v 2.75 -7.000002 -2.25
v 2.75 -5.000002 -2.5
v 2.75 -7.000002 -2.5
v 4.75 -7.000002 -2.5
v 4.75 -5.000002 -2.25
v 4.75 -5.000002 -2.5
v 2.75 -2.000001 -1.25
v 2.75 -0.5 -1.25
v 3 -2.000001 -1.25
v 3 -0.5 -1.25
v 2.75 -0.5 -2.75
v 3 -0.5 -2.75
v 2.75 -2.000001 -2.75
v 3 -2.000001 -2.75
v 0.75 -12.00001 0.25
v 0.75 -13.00001 0.25
v 0.25 -12.00001 0.25
v 0.25 -13.00001 0.25
v 0.75 -13.00001 -0.25
v 0.75 -13.00001 -2.25
v 0.25 -13.00001 -0.25
v 0.25 -13.00001 -2.25
v 0.75 -12.00001 -2.25
v 0.25 -12.00001 -2.25
v 0.75 -12.00001 -0.25
v 0.25 -12.00001 -0.25
v 3.25 -12.00001 -0.25
v 3.25 -13.00001 -0.25
v 3.25 -12.00001 0.25
v 3.25 -13.00001 0.25
v 1.75 3.000002 -2.25
v 1.75 1 -2.25
v 1.75 3.000002 -2.5
v 1.75 1 -2.5
v 2.75 1 -2.25
v 2.75 1 -2.5
v 2.75 3.000001 -2.25
v 2.75 3.000001 -2.5
v 0.75 -16.00001 -0.25
v 2.75 5 -0.25
v 0.75 5.000002 -0.25
v 0.75 5.000002 -2.25
v 2.75 5 -2.25

vt -0.25 -2.000001
vt -0.25 0
vt 0 -2.000001
vt 0 0
vt -0.75 -0.25
vt -1.75 -0.25
vt -0.75 0
vt -1.75 0
vt 0.25 0
vt 0.25 -2.000001
vt 1.75 -0.25
vt 0.75 -0.25
vt 1.75 0
vt 0.75 0
vt 0.75 -2.000001
vt 1.75 -2.000001
vt -1.75 -2.000001
vt -0.75 -2.000001
vt -1.75 -3.000001
vt -0.75 -3.000001
vt 0 -3.000001
vt 0.25 -3.000001
vt -0.25 -3.000001
vt 0.75 -3.000001
vt 1.75 -3.000001
vt -0.5 -0.25
vt -0.5 0
vt -0.5 -3.000001
vt -0.5 -2.000001
vt 0.5 -2.000001
vt 0.5 -3.000001
vt 0.5 0
vt 0.5 -0.25
vt 1.5 -3.000001
vt 1.5 -2.000001
vt 0.5 -1.5
vt 0.75 -1.5
vt -0.75 -1.5
vt -0.5 -1.5
vt -1.5 -2.000001
vt -1.5 -3.000001
vt 20.75 -6.000005
vt 20.75 -8.000005
vt 14.75 -6.000005
vt 14.75 -8.000005
vt -20.25 -8.000005
vt -20.25 -6.000005
vt -14.25 -8.000005
vt -14.25 -6.000005
vt -20.75 -8.000005
vt -20.75 -6.000005
vt -14.75 -8.000005
vt -14.75 -6.000005
vt 20.25 -6.000005
vt 20.25 -8.000005
vt 14.25 -6.000005
vt 14.25 -8.000005
vt -2.75 -0.25
vt -2.75 -2.25
vt -0.75 -2.25
vt 2.75 -2.25
vt 0.75 -2.25
vt 2.75 -0.25
vt 20.75 -3.814697E-06
vt 20.75 -2.000004
vt 8.749998 -3.814697E-06
vt 8.749997 -2.000004
vt -18.25 -4.000004
vt -18.25 -2.000004
vt -6.249997 -4.000004
vt -6.249997 -2.000004
vt -20.75 -2.000004
vt -20.75 -3.814697E-06
vt -8.749997 -2.000004
vt -8.749998 -3.814697E-06
vt 18.25 -2.000004
vt 18.25 -4.000004
vt 6.249998 -2.000004
vt 6.249998 -4.000004
vt 16.75 1.999997
vt 16.75 -2.861023E-06
vt 0.7499971 1.999997
vt 0.7499971 -2.861023E-06
vt -18.25 1.999996
vt -18.25 3.999997
vt -2.249995 1.999996
vt -2.249995 3.999996
vt -16.75 -4.768372E-06
vt -16.75 1.999996
vt -0.7499952 -4.768372E-06
vt -0.7499952 1.999995
vt 18.25 3.999997
vt 18.25 1.999997
vt 2.249997 3.999997
vt 2.249997 1.999997
vt -0.75 1.75
vt 1.25 1.75
vt 1.25 -0.25
vt -1.25 -0.25
vt 0.75 1.75
vt -1.25 1.75
vt -18.75 -9.500011
vt -18.75 -7.500008
vt -18.25 -9.500011
vt -18.25 -7.500008
vt 3.75 -0.25
vt 3.75 0.25
vt 0.75 0.25
vt 18.75 -7.500008
vt 18.75 -9.500011
vt 18.25 -7.500008
vt 18.25 -9.500011
vt -3.75 -0.25
vt -0.75 0.25
vt -3.75 0.25
vt -13.75 -8.000004
vt -13.75 -10.00001
vt -16.75 -8.000004
vt -16.75 -10.00001
vt 16.75 -8.000004
vt 16.75 -10.00001
vt 13.75 -8.000004
vt 13.75 -10.00001
vt 17 -10.00001
vt 17 -8.000006
vt 0.5 0.25
vt -0.7499657 -0.2499828
vt -0.7499657 0.2500172
vt -0.4999657 -0.2499828
vt -0.4999657 0.2500172
vt -17 -8.000004
vt -17 -10.00001
vt -16.5 -9.750004
vt -16.5 -11.75001
vt -18.25 -9.750004
vt -18.25 -11.75
vt -0.7500005 -0.2499871
vt -0.5000005 -0.2499871
vt -0.7500005 -1.999988
vt -0.5000005 -1.999988
vt 16.5 -11.75001
vt 16.5 -9.750004
vt 18.25 -11.75
vt 18.25 -9.750004
vt -14.75 -5.500008
vt -14.25 -5.500008
vt -14.75 -7.500008
vt -14.25 -7.500008
vt 17 -6.000004
vt 16.75 -6.000004
vt -16.75 -6.000004
vt -17 -6.000004
vt 14.25 -5.500008
vt 14.75 -5.500008
vt 14.25 -7.500008
vt 14.75 -7.500008
vt -11.75 -4.500004
vt -11.25 -4.500004
vt -11.75 -5.500004
vt -11.25 -5.500005
vt 17 -5.000003
vt 16.75 -5.000004
vt -16.75 -5.000003
vt -17 -5.000002
vt 11.25 -4.500002
vt 11.75 -4.500002
vt 11.25 -5.500004
vt 11.75 -5.500003
vt 12.75 -1.000002
vt 12.75 -2.000003
vt 11.75 -1.000002
vt 11.75 -2.000002
vt -0.7500062 0.7499999
vt -1.750006 0.7499999
vt -12.75 -1.999977
vt -12.75 -0.9999771
vt -11.75 -1.999977
vt -11.75 -0.9999771
vt 1.75 0.7499999
vt 0.7500005 0.7499999
vt 6.25 -7.000003
vt 6.25 -6.000003
vt 7.25 -7.000003
vt 7.25 -6.000002
vt -7.25 -7.000003
vt -7.25 -6.000002
vt -6.25 -7.000003
vt -6.25 -6.000002
vt -8.250003 -6.000002
vt -8.250003 -7.000002
vt -1.750019 0.7500246
vt -2.750019 0.7500246
vt 1.749991 -0.2499747
vt 1.749991 0.7500252
vt 2.749991 -0.2499747
vt 2.749991 0.7500252
vt 8.250004 -7.000028
vt 8.250004 -6.000028
vt 15.75 -4.000107
vt 14.75 -4.000107
vt 15.75 -2.000054
vt 14.75 -2.000055
vt -8.250001 -9.000004
vt -7.250001 -9.000004
vt 7.24999 -7.00003
vt 8.24999 -7.000029
vt 7.24999 -9.00003
vt 8.24999 -9.00003
vt -14.75 -3.999979
vt -15.75 -3.999979
vt -14.75 -1.999979
vt -15.75 -1.999978
vt 20.75 -9.000006
vt 20.75 -10.00001
vt 18.75 -9.000006
vt 18.75 -10.00001
vt -17.25 -14.00001
vt -17.25 -13.00001
vt -15.25 -14.00001
vt -15.25 -13.00001
vt -20.75 -10.00001
vt -20.75 -9.000006
vt -18.75 -10.00001
vt -18.75 -9.000006
vt 17.25 -13.00001
vt 17.25 -14.00001
vt 15.25 -13.00001
vt 15.25 -14.00001
vt 0.25 -0.2500002
vt -0.75 -1.25
vt 0.25 -1.25
vt 0.75 -1.25
vt -0.25 -1.25
vt -0.25 -0.2500002
vt -21.25 -11
vt -21.25 -10
vt -20.25 -11.00001
vt -20.25 -10
vt 0.7499999 -0.25
vt 1.75 0.75
vt 0.75 0.75
vt 21.25 -10
vt 21.25 -11
vt 20.25 -10
vt 20.25 -11.00001
vt -1.75 -0.2499714
vt -0.7499999 0.7500286
vt -15.75 -14
vt -15.75 -15.00001
vt -16.75 -14
vt -16.75 -15.00001
vt 16.75 -14.00001
vt 16.75 -15.00001
vt 15.75 -14.00001
vt 15.75 -15.00001
vt 4.749925 -6.000005
vt 4.749925 -9.000007
vt 4.249925 -6.000005
vt 4.249925 -9.000007
vt 0.75 -0.2499995
vt -1.25 -0.2499995
vt -1.25 0.2500005
vt -4.749925 -9.000007
vt -4.749925 -6.000005
vt -4.249925 -9.000007
vt -4.249925 -6.000005
vt 1.25 -0.2500257
vt 1.25 0.2499743
vt -0.75 0.2499743
vt -5.249925 -5.000008
vt -5.249925 -8.00001
vt -7.249924 -5.000008
vt -7.249924 -8.00001
vt 7.249924 -5.000008
vt 7.249924 -8.00001
vt 5.249925 -5.000008
vt 5.249925 -8.00001
vt 7.249924 -3.000008
vt 5.249925 -3.000008
vt -4.249927 -4.000039
vt -4.749927 -4.000039
vt 4.749926 -4.000243
vt 4.249926 -4.000243
vt -5.249918 -3.000008
vt -7.249917 -3.000008
vt -1.249961 -0.250026
vt -2.749961 0.2500005
vt -2.749961 -0.2500255
vt -8.749919 -3.000008
vt -8.749919 -5.000008
vt 8.749919 -5.00001
vt 8.749919 -3.000008
vt 2.75 0.2499743
vt 5.749928 -6.000166
vt 5.749928 -4.000113
vt -2.750001 -1.250019
vt -1.250001 -1.250019
vt 1.25 -1.250026
vt 2.75 -1.250026
vt -5.749924 -4.000036
vt -5.749924 -6.00004
vt -8.749942 -6.000002
vt -7.249939 -6.000002
vt -5.749919 -7.000031
vt -4.74992 -7.000029
vt 4.749923 -7.000185
vt 5.749923 -7.000187
vt 7.249917 -6.000004
vt 8.749915 -6.000004
vt -8.74992 -7.000004
vt -7.24992 -7.000006
vt -5.749906 -8.000033
vt -4.749908 -8.000031
vt 4.749924 -8.000031
vt 5.749924 -8.000031
vt 8.749924 -7.000006
vt -5.25 -10
vt -5.25 -5.000002
vt -5 -10
vt -5 -5.000002
vt 5.25 -5.000002
vt 5.25 -10
vt 5 -5.000002
vt 5 -10
vt 6.75 -9.000004
vt 6.75 -4.000002
vt 7.75 -9.000004
vt 7.75 -4.000002
vt -7.75 -9.000004
vt -7.75 -4.000002
vt -6.75 -9.000004
vt -6.75 -4.000002
vt -4.25 -5.000002
vt -4.25 -4.000001
vt -3.75 -5.000002
vt -3.75 -4.000001
vt 4.25 -4.000002
vt 4.25 -5.000002
vt 3.75 -4.000002
vt 3.75 -5.000002
vt 6.75 -3.000002
vt 6.75 -2.000001
vt 9.75 -3.000002
vt 9.75 -2.000002
vt -9.75 -3.000002
vt -9.75 -2.000002
vt -6.75 -3.000002
vt -6.75 -2.000001
vt 7.75 -1.430511E-06
vt 7.75 -1.000001
vt 6.75 -1.430511E-06
vt 6.75 -1.000001
vt -4.75 -3.500001
vt -4.75 -2.500001
vt -3.75 -3.500001
vt -3.75 -2.500001
vt -7.75 -1.000001
vt -7.75 -1.430511E-06
vt -6.75 -1.000001
vt -6.75 -1.430511E-06
vt 4.75 -2.500001
vt 4.75 -3.500001
vt 3.75 -2.500001
vt 3.75 -3.500001
vt -1.75 -1.25
vt 1.750004 -1.25
vt -9.5 -4.750005
vt -9.5 -2.750004
vt -9.25 -4.750005
vt -9.25 -2.750004
vt 2.75 -2.384186E-07
vt 9.5 -2.750004
vt 9.5 -4.750005
vt 9.25 -2.750004
vt 9.25 -4.750005
vt -2.75 -2.384186E-07
vt -7.75 -1.000002
vt -7.75 -3.000002
vt -9.75 -1.000002
vt 9.75 -1.000002
vt 7.75 -1.000002
vt 7.75 -3.000002
vt 5.5 1.750001
vt 5.5 0.2499993
vt 5.25 1.750001
vt 5.25 0.2499993
vt 1.25 -0.2499999
vt -0.25 -0.2499999
vt 1.25 1.192093E-07
vt -5.5 0.2499993
vt -5.5 1.750001
vt -5.25 0.2499993
vt -5.25 1.750001
vt 0.25 -0.2499999
vt -1.25 -0.2499999
vt -1.25 1.192093E-07
vt 1.249999 0.999999
vt 1.249999 2.5
vt 2.749999 0.999999
vt 2.749999 2.5
vt -2.749999 0.999999
vt -2.749999 2.5
vt -1.249999 0.999999
vt -1.249999 2.5
vt 12.75 -12.00004
vt 12.75 -13.00004
vt 12.25 -12.00004
vt 12.25 -13.00004
vt 2.75 0.25
vt -12.75 -13.00001
vt -12.75 -12
vt -12.25 -13.00001
vt -12.25 -12
vt -0.7499997 -0.25
vt -2.75 -0.2499999
vt -0.7499999 0.2499999
vt -2.75 0.2499999
vt -12.25 -10.00001
vt -12.25 -11.00001
vt -14.25 -10.00001
vt -14.25 -11.00001
vt 14.25 -10.00001
vt 14.25 -11.00001
vt 12.25 -10.00001
vt 12.25 -11.00001
vt 11.75001 -10.00001
vt 11.75001 -11.00001
vt -2.750037 0.2499999
vt -3.250037 0.2499999
vt -3.250037 -0.2500249
vt 3.250038 -0.2500248
vt 3.250038 0.25
vt -11.75 -11.00003
vt -11.75 -10.00003
vt -15.25001 -12.00013
vt -3.250017 -2.7501
vt -2.749892 -2.750075
vt 2.749884 -2.750075
vt 3.250008 -2.7501
vt 15.25001 -12.00004
vt -1.5 3.250002
vt -1.5 5.250006
vt -1.25 3.250002
vt -1.25 5.250006
vt 1.5 5.250005
vt 1.5 3.250002
vt 1.25 5.250005
vt 1.25 3.250002
vt -1.749997 -0.2500002
vt -1.749997 -2.384186E-07
vt 1.25 5.000002
vt 1.25 3
vt 0.25 5.000001
vt 0.25 3
vt -0.25 5.000001
vt -0.25 3
vt -1.25 5.000002
vt -1.25 3
vt 18.75 6.999998
vt 18.75 4.999998
vt -2.250002 6.999998
vt -2.250004 4.999998
vt -16.25 4.999999
vt -16.25 6.999999
vt 4.750004 4.999998
vt 4.750004 6.999998
vt -18.75 4.999999
vt -18.75 6.999999
vt 2.250004 4.999998
vt 2.250002 6.999998
vt 16.25 6.999997
vt 16.25 4.999997
vt -4.750003 6.999997
vt -4.750003 4.999997
vt -2.749995 1.75
vt -0.7499952 1.75
vt 2.75 1.75

vn -1 0 0
vn 0 1 0
vn 1 0 0
vn 0 -1 0
vn 0 0 1
vn 0 0 -1

usemtl ProBuilder_Default_URP
f 3/3/1 4/4/1 2/2/1 1/1/1
f 4/7/2 6/8/2 5/6/2 2/5/2
f 6/4/3 8/3/3 7/10/3 5/9/3
f 11/13/4 12/14/4 10/12/4 9/11/4
f 8/16/5 6/13/5 4/14/5 3/15/5
f 1/18/6 2/7/6 5/8/6 7/17/6
f 9/19/6 10/20/6 1/18/6 7/17/6
f 11/21/3 9/22/3 7/10/3 8/3/3
f 15/23/1 16/21/1 14/3/1 13/1/1
f 12/24/5 11/25/5 8/16/5 3/15/5
f 13/26/2 14/27/2 3/7/2 1/5/2
f 19/28/6 20/29/6 18/18/6 17/20/6
f 14/30/5 16/31/5 12/24/5 3/15/5
f 16/32/4 15/33/4 10/12/4 12/14/4
f 17/34/3 18/35/3 1/10/3 10/22/3
f 19/36/4 17/37/4 10/12/4 15/33/4
f 18/38/2 20/39/2 13/26/2 1/5/2
f 20/40/1 19/41/1 15/23/1 13/1/1
f 23/44/5 24/45/5 22/43/5 21/42/5
f 24/48/1 26/49/1 25/47/1 22/46/1
f 26/52/6 28/53/6 27/51/6 25/50/6
f 28/56/3 23/57/3 21/55/3 27/54/3
f 28/59/2 26/60/2 24/5/2 23/58/2
f 21/63/4 22/12/4 25/62/4 27/61/4
f 31/66/5 32/67/5 30/65/5 29/64/5
f 32/70/1 33/71/1 22/69/1 30/68/1
f 33/74/6 34/75/6 21/73/6 22/72/6
f 34/78/3 31/79/3 29/77/3 21/76/3
f 34/59/2 33/60/2 32/5/2 31/58/2
f 29/63/4 30/12/4 22/62/4 21/61/4
f 36/82/5 37/83/5 35/81/5 22/80/5
f 37/86/1 39/87/1 38/85/1 35/84/1
f 39/90/6 40/91/6 25/89/6 38/88/6
f 40/94/3 36/95/3 22/93/3 25/92/3
f 40/5/2 39/98/2 37/97/2 36/96/2
f 22/100/4 35/101/4 38/99/4 25/12/4
f 43/104/1 44/105/1 42/103/1 41/102/1
f 44/107/4 46/108/4 45/12/4 42/106/4
f 49/111/3 50/112/3 48/110/3 47/109/3
f 52/114/2 43/115/2 41/113/2 51/5/2
f 52/118/6 46/119/6 44/117/6 43/116/6
f 41/122/5 42/123/5 45/121/5 51/120/5
f 55/124/5 56/125/5 54/120/5 53/121/5
f 49/126/4 47/33/4 45/12/4 46/108/4
f 59/129/2 60/130/2 58/128/2 57/127/2
f 50/131/6 49/132/6 46/119/6 52/118/6
f 53/135/1 54/136/1 51/134/1 45/133/1
f 55/30/4 53/15/4 45/12/4 47/33/4
f 54/139/2 56/140/2 48/138/2 51/137/2
f 56/143/3 55/144/3 47/142/3 48/141/3
f 28/147/1 61/148/1 52/146/1 51/145/1
f 62/149/5 28/150/5 51/120/5 48/125/5
f 61/151/6 63/152/6 50/131/6 52/118/6
f 63/155/3 62/156/3 48/154/3 50/153/3
f 57/159/1 58/160/1 61/158/1 28/157/1
f 59/161/5 57/162/5 28/150/5 62/149/5
f 58/163/6 60/164/6 63/152/6 61/151/6
f 60/167/3 59/168/3 62/166/3 63/165/3
f 66/171/5 67/172/5 65/170/5 64/169/5
f 67/173/2 69/174/2 68/6/2 65/5/2
f 72/177/6 73/178/6 71/176/6 70/175/6
f 75/179/4 66/180/4 64/12/4 74/11/4
f 75/183/3 69/184/3 67/182/3 66/181/3
f 64/187/1 65/188/1 68/186/1 74/185/1
f 70/189/1 71/190/1 74/185/1 68/186/1
f 72/192/2 70/58/2 68/6/2 69/191/2
f 78/195/4 79/196/4 77/194/4 76/193/4
f 73/197/3 72/198/3 69/184/3 75/183/3
f 76/201/5 77/202/5 75/200/5 74/199/5
f 78/203/1 76/204/1 74/185/1 71/190/1
f 77/207/3 79/208/3 73/206/3 75/205/3
f 79/211/6 78/212/6 71/210/6 73/209/6
f 81/215/5 82/216/5 29/214/5 80/213/5
f 82/219/1 84/220/1 83/218/1 29/217/1
f 84/223/6 86/224/6 85/222/6 83/221/6
f 86/227/3 81/228/3 80/226/3 85/225/3
f 86/230/2 84/231/2 82/229/2 81/5/2
f 80/12/4 29/234/4 83/233/4 85/232/4
f 88/237/1 89/238/1 38/236/1 87/235/1
f 89/240/4 91/241/4 90/239/4 38/11/4
f 91/244/3 93/245/3 92/243/3 90/242/3
f 93/247/2 88/191/2 87/246/2 92/137/2
f 93/250/6 91/251/6 89/249/6 88/248/6
f 87/254/5 38/255/5 90/253/5 92/252/5
f 96/258/5 97/259/5 95/257/5 94/256/5
f 97/108/4 99/262/4 98/261/4 95/260/4
f 99/265/6 101/266/6 100/264/6 98/263/6
f 104/268/2 105/269/2 103/5/2 102/267/2
f 101/272/1 99/273/1 97/271/1 96/270/1
f 94/276/3 95/277/3 98/275/3 100/274/3
f 102/278/3 103/279/3 94/276/3 100/274/3
f 108/280/6 109/281/6 107/264/6 106/266/6
f 103/282/5 105/283/5 96/258/5 94/256/5
f 105/284/1 104/285/1 101/272/1 96/270/1
f 106/287/4 107/288/4 100/286/4 101/262/4
f 108/289/1 106/290/1 101/272/1 104/285/1
f 112/291/3 113/292/3 111/278/3 110/274/3
f 109/63/2 108/293/2 104/268/2 102/267/2
f 110/294/5 111/295/5 102/282/5 100/256/5
f 116/296/4 117/297/4 115/99/4 114/58/4
f 111/298/2 113/299/2 109/63/2 102/267/2
f 113/300/6 112/301/6 107/264/6 109/281/6
f 118/302/1 119/303/1 100/272/1 107/290/1
f 120/304/6 118/305/6 107/264/6 112/301/6
f 119/306/5 121/307/5 110/294/5 100/256/5
f 121/308/3 120/309/3 112/291/3 110/274/3
f 114/310/1 115/311/1 119/303/1 118/302/1
f 116/312/6 114/313/6 118/305/6 120/304/6
f 115/314/5 117/315/5 121/307/5 119/306/5
f 117/205/3 116/316/3 120/309/3 121/308/3
f 124/319/1 125/320/1 123/318/1 122/317/1
f 125/7/2 127/8/2 126/6/2 123/5/2
f 127/323/3 129/324/3 128/322/3 126/321/3
f 129/13/4 124/14/4 122/12/4 128/11/4
f 129/327/5 127/328/5 125/326/5 124/325/5
f 122/331/6 123/332/6 126/330/6 128/329/6
f 130/335/1 131/336/1 32/334/1 126/333/1
f 131/114/2 133/115/2 132/113/2 32/5/2
f 133/339/3 135/340/3 134/338/3 132/337/3
f 135/107/4 130/108/4 126/12/4 134/106/4
f 135/343/5 133/344/5 131/342/5 130/341/5
f 126/347/6 32/348/6 132/346/6 134/345/6
f 137/351/5 138/352/5 131/350/5 136/349/5
f 138/355/1 140/356/1 139/354/1 131/353/1
f 140/359/6 142/360/6 141/358/6 139/357/6
f 142/363/3 137/364/3 136/362/3 141/361/3
f 142/365/2 140/230/2 138/5/2 137/6/2
f 136/11/4 131/12/4 139/232/4 141/366/4
f 145/369/1 146/370/1 144/368/1 143/367/1
f 146/371/4 147/14/4 71/12/4 144/63/4
f 147/374/3 149/375/3 148/373/3 71/372/3
f 149/7/2 145/376/2 143/58/2 148/5/2
f 149/379/6 147/345/6 146/378/6 145/377/6
f 143/381/5 144/382/5 71/343/5 148/380/5
f 152/385/5 153/386/5 151/384/5 150/383/5
f 153/389/2 155/2/2 154/388/2 151/387/2
f 155/392/6 157/393/6 156/391/6 154/390/6
f 157/9/4 152/396/4 150/395/4 156/394/4
f 157/399/3 155/400/3 153/398/3 152/397/3
f 150/403/1 151/404/1 154/402/1 156/401/1
f 160/407/5 161/408/5 159/406/5 158/405/5
f 164/409/4 165/108/4 163/12/4 162/63/4
f 165/412/6 167/413/6 166/411/6 163/410/6
f 167/416/2 169/417/2 168/415/2 166/414/2
f 167/420/1 165/421/1 164/419/1 169/418/1
f 168/424/3 162/425/3 163/423/3 166/422/3
f 172/426/3 173/427/3 171/425/3 170/424/3
f 160/429/2 158/430/2 168/58/2 169/428/2
f 159/431/4 161/432/4 164/409/4 162/63/4
f 161/433/1 160/434/1 169/418/1 164/419/1
f 170/435/6 171/220/6 162/410/6 168/411/6
f 172/436/2 170/437/2 168/58/2 158/430/2
f 171/438/4 173/439/4 159/431/4 162/63/4
f 173/227/5 172/440/5 158/405/5 159/406/5
f 176/443/1 177/444/1 175/442/1 174/441/1
f 177/13/4 179/14/4 178/12/4 175/11/4
f 179/447/3 181/448/3 180/446/3 178/445/3
f 181/90/2 176/450/2 174/449/2 180/414/2
f 181/453/6 179/454/6 177/452/6 176/451/6
f 174/457/5 175/458/5 178/456/5 180/455/5
f 183/461/5 184/462/5 182/460/5 30/459/5
f 184/465/1 185/466/1 35/464/1 182/463/1
f 185/469/6 186/470/6 22/468/6 35/467/6
f 186/473/3 183/474/3 30/472/3 22/471/3
f 186/288/2 185/414/2 184/476/2 183/475/2
f 30/477/4 182/100/4 35/12/4 22/63/4

